<mxfile host="Electron" agent="Mozilla/5.0 (Windows NT 10.0; Win64; x64) AppleWebKit/537.36 (KHTML, like Gecko) draw.io/28.0.4 Chrome/138.0.7204.97 Electron/37.2.1 Safari/537.36" version="28.0.4">
  <diagram name="第 1 页" id="ArvuRZLibUp1Q2hhUhFh">
    <mxGraphModel dx="1011" dy="690" grid="1" gridSize="10" guides="1" tooltips="1" connect="1" arrows="1" fold="1" page="1" pageScale="1" pageWidth="827" pageHeight="1169" math="0" shadow="0">
      <root>
        <mxCell id="0" />
        <mxCell id="1" parent="0" />
        <mxCell id="t5M3XgHPUmDeoMBwa5Vq-1" value="&lt;div style=&quot;text-align: justify;&quot;&gt;&lt;span style=&quot;background-color: light-dark(#ffffff, var(--ge-dark-color, #121212));&quot;&gt;projectionMat:&amp;nbsp;&amp;nbsp;&lt;/span&gt;&lt;span style=&quot;background-color: light-dark(#ffffff, var(--ge-dark-color, #121212)); font-size: 9.8pt;&quot;&gt;camera coordinate system&amp;nbsp; &amp;nbsp; &amp;nbsp;&amp;nbsp;&lt;/span&gt;&lt;span style=&quot;background-color: light-dark(#ffffff, var(--ge-dark-color, #121212));&quot;&gt;&amp;gt;&amp;gt;&amp;nbsp;&lt;/span&gt;&lt;font&gt;&lt;span style=&quot;background-color: light-dark(#ffffff, var(--ge-dark-color, #121212));&quot;&gt;&amp;nbsp;&lt;/span&gt;&lt;span style=&quot;background-color: light-dark(#ffffff, var(--ge-dark-color, #121212)); font-size: 9.8pt;&quot;&gt;clip coordinate system&lt;/span&gt;&lt;/font&gt;&lt;/div&gt;&lt;div&gt;&lt;div style=&quot;text-align: justify;&quot;&gt;&lt;span style=&quot;background-color: light-dark(#ffffff, var(--ge-dark-color, #121212));&quot;&gt;viewMat:&lt;span style=&quot;white-space: pre;&quot;&gt;&#x9;&lt;/span&gt;&amp;nbsp; &amp;nbsp; &amp;nbsp; &amp;nbsp; &amp;nbsp;&amp;nbsp;&lt;/span&gt;&lt;span style=&quot;background-color: light-dark(#ffffff, var(--ge-dark-color, #121212)); font-size: 9.8pt;&quot;&gt;the world coordinate system&amp;nbsp; &amp;gt;&amp;gt; the camera&amp;nbsp;&lt;/span&gt;&lt;span style=&quot;font-size: 9.8pt; background-color: light-dark(#ffffff, var(--ge-dark-color, #121212));&quot;&gt;coordinate system&amp;nbsp;&lt;/span&gt;&lt;span style=&quot;background-color: light-dark(#ffffff, var(--ge-dark-color, #121212));&quot;&gt;modelMat:&lt;/span&gt;&lt;/div&gt;&lt;/div&gt;&lt;div style=&quot;text-align: justify;&quot;&gt;madelMat:&amp;nbsp; &amp;nbsp; &amp;nbsp; &amp;nbsp; &amp;nbsp;&lt;span style=&quot;background-color: light-dark(#ffffff, var(--ge-dark-color, #121212)); text-align: center;&quot;&gt;local&amp;nbsp;coordinate&amp;nbsp;system&amp;nbsp; &amp;nbsp; &amp;nbsp; &amp;nbsp; &amp;nbsp; &amp;nbsp; &amp;nbsp;&amp;gt;&amp;gt;&amp;nbsp;&lt;/span&gt;&lt;span style=&quot;background-color: light-dark(#ffffff, var(--ge-dark-color, #121212)); text-align: center;&quot;&gt;world&amp;nbsp;coordinate&amp;nbsp;system&lt;/span&gt;&lt;/div&gt;&lt;div style=&quot;text-align: justify;&quot;&gt;vertices:&lt;span style=&quot;white-space: pre;&quot;&gt;&#x9;&lt;/span&gt;&lt;span style=&quot;white-space: pre;&quot;&gt;&#x9;&lt;/span&gt;&amp;nbsp; &amp;nbsp;vertices&amp;nbsp;of&amp;nbsp;the&amp;nbsp;detected&amp;nbsp;plane&lt;span style=&quot;background-color: light-dark(#ffffff, var(--ge-dark-color, #121212)); text-align: center;&quot;&gt;&lt;/span&gt;&lt;/div&gt;" style="text;html=1;align=center;verticalAlign=middle;whiteSpace=wrap;rounded=0;labelBackgroundColor=default;fontFamily=Times New Roman;fontStyle=0;fontColor=default;" vertex="1" parent="1">
          <mxGeometry x="20" y="350" width="529" height="100" as="geometry" />
        </mxCell>
        <mxCell id="t5M3XgHPUmDeoMBwa5Vq-2" value="&lt;div style=&quot;text-align: justify;&quot;&gt;&lt;p&gt;DeviceAnchor.originFromAnchorTransform:&amp;nbsp; 设备坐标系 &amp;gt;&amp;gt; 世界坐标系&lt;/p&gt;&lt;p&gt;&amp;nbsp;PlaneAnchor.originFromAnchorTransform：平面相对坐标系 &amp;gt;&amp;gt; 世界坐标系&lt;/p&gt;&lt;p&gt;PlaneAnchor.geometry{&lt;/p&gt;&lt;p&gt;&lt;span style=&quot;white-space: pre;&quot;&gt;&#x9;&lt;/span&gt;meshFaces;&lt;/p&gt;&lt;p&gt;&amp;nbsp; &amp;nbsp; &amp;nbsp; &amp;nbsp; meshVertices;&lt;/p&gt;&lt;p&gt;&amp;nbsp; &amp;nbsp; &amp;nbsp; &amp;nbsp; extent;&lt;/p&gt;&lt;p&gt;}&lt;/p&gt;&lt;/div&gt;" style="text;html=1;align=center;verticalAlign=middle;whiteSpace=wrap;rounded=0;labelBackgroundColor=default;fontFamily=Times New Roman;fontStyle=0;fontColor=default;" vertex="1" parent="1">
          <mxGeometry x="20" y="10" width="440" height="260" as="geometry" />
        </mxCell>
        <mxCell id="t5M3XgHPUmDeoMBwa5Vq-3" value="&lt;div style=&quot;text-align: justify;&quot;&gt;&lt;span style=&quot;background-color: light-dark(#ffffff, var(--ge-dark-color, #121212));&quot;&gt;projectionMat:&amp;nbsp;&amp;nbsp;&lt;/span&gt;&lt;span style=&quot;background-color: light-dark(#ffffff, var(--ge-dark-color, #121212)); font-size: 9.8pt;&quot;&gt;相机坐标系&amp;nbsp; &amp;nbsp; &amp;nbsp;&amp;nbsp;&lt;/span&gt;&lt;span style=&quot;background-color: light-dark(#ffffff, var(--ge-dark-color, #121212));&quot;&gt;&amp;gt;&amp;gt;&amp;nbsp;&lt;/span&gt;&lt;font&gt;&lt;span style=&quot;background-color: light-dark(#ffffff, var(--ge-dark-color, #121212));&quot;&gt;&amp;nbsp; &amp;nbsp; &amp;nbsp;&lt;span style=&quot;font-size: 13.0667px;&quot;&gt;裁剪坐标系&lt;/span&gt;&lt;/span&gt;&lt;/font&gt;&lt;/div&gt;&lt;div&gt;&lt;div style=&quot;text-align: justify;&quot;&gt;&lt;span style=&quot;background-color: light-dark(#ffffff, var(--ge-dark-color, #121212));&quot;&gt;viewMat:&lt;span style=&quot;white-space: pre;&quot;&gt;&#x9;&lt;/span&gt;&amp;nbsp; &amp;nbsp; &amp;nbsp; &amp;nbsp; &amp;nbsp;世界坐标系&lt;/span&gt;&lt;span style=&quot;background-color: light-dark(#ffffff, var(--ge-dark-color, #121212)); font-size: 9.8pt;&quot;&gt;&amp;nbsp; &lt;span style=&quot;white-space: pre;&quot;&gt;&#x9;&lt;/span&gt;&amp;nbsp; &amp;gt;&amp;gt;&amp;nbsp; &amp;nbsp; &amp;nbsp;相机坐标系&lt;/span&gt;&lt;/div&gt;&lt;/div&gt;&lt;div style=&quot;text-align: justify;&quot;&gt;madelMat:&amp;nbsp; &amp;nbsp; &amp;nbsp; &amp;nbsp; 平面相对坐标系&lt;span style=&quot;background-color: light-dark(#ffffff, var(--ge-dark-color, #121212)); text-align: center;&quot;&gt;&amp;nbsp;&amp;gt;&amp;gt;&amp;nbsp; &amp;nbsp; &amp;nbsp; 世界坐标系&lt;/span&gt;&lt;/div&gt;&lt;div style=&quot;text-align: justify;&quot;&gt;vertices:&lt;span style=&quot;white-space: pre;&quot;&gt;&#x9;&lt;/span&gt;&lt;span style=&quot;white-space: pre;&quot;&gt;&#x9;&lt;/span&gt;&amp;nbsp; 顶点坐标&lt;span style=&quot;background-color: light-dark(#ffffff, var(--ge-dark-color, #121212)); text-align: center;&quot;&gt;&lt;/span&gt;&lt;/div&gt;" style="text;html=1;align=center;verticalAlign=middle;whiteSpace=wrap;rounded=0;labelBackgroundColor=default;fontFamily=Times New Roman;fontStyle=0;fontColor=default;" vertex="1" parent="1">
          <mxGeometry x="30" y="260" width="310" height="100" as="geometry" />
        </mxCell>
        <mxCell id="t5M3XgHPUmDeoMBwa5Vq-5" value="创建&lt;span style=&quot;text-align: left; white-space: pre;&quot;&gt;arkitSession&lt;/span&gt;" style="text;html=1;align=center;verticalAlign=middle;whiteSpace=wrap;rounded=0;labelBackgroundColor=default;fontColor=default;fontFamily=Helvetica;fontSize=12;" vertex="1" parent="1">
          <mxGeometry x="210" y="490" width="150" height="30" as="geometry" />
        </mxCell>
        <mxCell id="t5M3XgHPUmDeoMBwa5Vq-6" value="创建PlaneProvider、&lt;span style=&quot;white-space: pre;&quot;&gt;WorldTrackingProvider&lt;/span&gt;" style="text;html=1;align=center;verticalAlign=middle;whiteSpace=wrap;rounded=0;fontColor=default;labelBackgroundColor=default;fontFamily=Helvetica;fontSize=12;" vertex="1" parent="1">
          <mxGeometry x="120" y="530" width="290" height="30" as="geometry" />
        </mxCell>
        <mxCell id="t5M3XgHPUmDeoMBwa5Vq-7" value="&lt;div style=&quot;font-weight: normal; line-height: 19px; white-space: pre;&quot;&gt;&lt;div&gt;&lt;span&gt;arkitSession&lt;/span&gt;&lt;span&gt;.&lt;/span&gt;&lt;span&gt;run&lt;/span&gt;&lt;span&gt;()&lt;/span&gt;&lt;/div&gt;&lt;/div&gt;" style="text;whiteSpace=wrap;html=1;labelBackgroundColor=default;fontColor=default;fontFamily=Helvetica;fontSize=12;" vertex="1" parent="1">
          <mxGeometry x="210" y="560" width="120" height="40" as="geometry" />
        </mxCell>
        <mxCell id="t5M3XgHPUmDeoMBwa5Vq-8" value="&lt;div style=&quot;font-weight: normal; line-height: 19px; white-space: pre;&quot;&gt;&lt;div&gt;&lt;div style=&quot;line-height: 19px;&quot;&gt;worldTracking.&lt;span&gt;queryDeviceAnchor获取设备位置DeviceAnchor&lt;/span&gt;&lt;/div&gt;&lt;/div&gt;&lt;/div&gt;" style="text;whiteSpace=wrap;html=1;labelBackgroundColor=default;fontColor=default;fontFamily=Helvetica;fontSize=12;" vertex="1" parent="1">
          <mxGeometry x="80" y="610" width="465.5" height="40" as="geometry" />
        </mxCell>
        <mxCell id="t5M3XgHPUmDeoMBwa5Vq-10" value="&lt;div style=&quot;font-weight: normal; line-height: 19px; white-space: pre;&quot;&gt;&lt;div&gt;&lt;span&gt;从&lt;/span&gt;&lt;span&gt;planeDetection.anchorUpdates&lt;/span&gt;&lt;span&gt;获取&lt;/span&gt;&lt;span&gt;anchorUpdate(包含planeA&lt;/span&gt;&lt;span&gt;nchor)&lt;/span&gt;&lt;span&gt; &lt;/span&gt;&lt;span&gt; &lt;/span&gt;&lt;/div&gt;&lt;div&gt;&lt;br&gt;&lt;/div&gt;&lt;/div&gt;" style="text;whiteSpace=wrap;html=1;labelBackgroundColor=default;fontColor=default;fontFamily=Helvetica;fontSize=12;" vertex="1" parent="1">
          <mxGeometry x="70" y="650" width="465.5" height="30" as="geometry" />
        </mxCell>
      </root>
    </mxGraphModel>
  </diagram>
</mxfile>
